<svg xmlns="http://www.w3.org/2000/svg" xmlns:xlink="http://www.w3.org/1999/xlink" version="1.1" class="marks" width="596" height="466" viewBox="0 0 596 466"><rect width="596" height="466" fill="white"/><g fill="none" stroke-miterlimit="10" transform="translate(91,27)"><g class="mark-group role-frame root" role="graphics-object" aria-roledescription="group mark container"><g transform="translate(0,0)"><path class="background" aria-hidden="true" d="M0.5,0.5h500v300h-500Z" stroke="#ddd"/><g><g class="mark-group role-axis" aria-hidden="true"><g transform="translate(0.5,0.5)"><path class="background" aria-hidden="true" d="M0,0h0v0h0Z" pointer-events="none"/><g><g class="mark-rule role-axis-grid" pointer-events="none"><line transform="translate(0,300)" x2="500" y2="0" stroke="#ddd" stroke-width="1" opacity="1"/><line transform="translate(0,273)" x2="500" y2="0" stroke="#ddd" stroke-width="1" opacity="1"/><line transform="translate(0,245)" x2="500" y2="0" stroke="#ddd" stroke-width="1" opacity="1"/><line transform="translate(0,218)" x2="500" y2="0" stroke="#ddd" stroke-width="1" opacity="1"/><line transform="translate(0,191)" x2="500" y2="0" stroke="#ddd" stroke-width="1" opacity="1"/><line transform="translate(0,164)" x2="500" y2="0" stroke="#ddd" stroke-width="1" opacity="1"/><line transform="translate(0,136)" x2="500" y2="0" stroke="#ddd" stroke-width="1" opacity="1"/><line transform="translate(0,109)" x2="500" y2="0" stroke="#ddd" stroke-width="1" opacity="1"/><line transform="translate(0,82)" x2="500" y2="0" stroke="#ddd" stroke-width="1" opacity="1"/><line transform="translate(0,55)" x2="500" y2="0" stroke="#ddd" stroke-width="1" opacity="1"/><line transform="translate(0,27)" x2="500" y2="0" stroke="#ddd" stroke-width="1" opacity="1"/><line transform="translate(0,0)" x2="500" y2="0" stroke="#ddd" stroke-width="1" opacity="1"/></g></g><path class="foreground" aria-hidden="true" d="" pointer-events="none" display="none"/></g></g><g class="mark-group role-axis" role="graphics-symbol" aria-roledescription="axis" aria-label="X-axis titled 'Hero' for a discrete scale with 41 values: Winnie the Pooh, Aurora, Taran, Basil, Jim Hawkins, ending with Snow White"><g transform="translate(0.5,300.5)"><path class="background" aria-hidden="true" d="M0,0h0v0h0Z" pointer-events="none"/><g><g class="mark-rule role-axis-tick" pointer-events="none"><line transform="translate(6,0)" x2="0" y2="5" stroke="#888" stroke-width="1" opacity="1"/><line transform="translate(18,0)" x2="0" y2="5" stroke="#888" stroke-width="1" opacity="1"/><line transform="translate(30,0)" x2="0" y2="5" stroke="#888" stroke-width="1" opacity="1"/><line transform="translate(42,0)" x2="0" y2="5" stroke="#888" stroke-width="1" opacity="1"/><line transform="translate(54,0)" x2="0" y2="5" stroke="#888" stroke-width="1" opacity="1"/><line transform="translate(67,0)" x2="0" y2="5" stroke="#888" stroke-width="1" opacity="1"/><line transform="translate(79,0)" x2="0" y2="5" stroke="#888" stroke-width="1" opacity="1"/><line transform="translate(91,0)" x2="0" y2="5" stroke="#888" stroke-width="1" opacity="1"/><line transform="translate(103,0)" x2="0" y2="5" stroke="#888" stroke-width="1" opacity="1"/><line transform="translate(115,0)" x2="0" y2="5" stroke="#888" stroke-width="1" opacity="1"/><line transform="translate(128,0)" x2="0" y2="5" stroke="#888" stroke-width="1" opacity="1"/><line transform="translate(140,0)" x2="0" y2="5" stroke="#888" stroke-width="1" opacity="1"/><line transform="translate(152,0)" x2="0" y2="5" stroke="#888" stroke-width="1" opacity="1"/><line transform="translate(164,0)" x2="0" y2="5" stroke="#888" stroke-width="1" opacity="1"/><line transform="translate(176,0)" x2="0" y2="5" stroke="#888" stroke-width="1" opacity="1"/><line transform="translate(189,0)" x2="0" y2="5" stroke="#888" stroke-width="1" opacity="1"/><line transform="translate(201,0)" x2="0" y2="5" stroke="#888" stroke-width="1" opacity="1"/><line transform="translate(213,0)" x2="0" y2="5" stroke="#888" stroke-width="1" opacity="1"/><line transform="translate(225,0)" x2="0" y2="5" stroke="#888" stroke-width="1" opacity="1"/><line transform="translate(237,0)" x2="0" y2="5" stroke="#888" stroke-width="1" opacity="1"/><line transform="translate(250,0)" x2="0" y2="5" stroke="#888" stroke-width="1" opacity="1"/><line transform="translate(262,0)" x2="0" y2="5" stroke="#888" stroke-width="1" opacity="1"/><line transform="translate(274,0)" x2="0" y2="5" stroke="#888" stroke-width="1" opacity="1"/><line transform="translate(286,0)" x2="0" y2="5" stroke="#888" stroke-width="1" opacity="1"/><line transform="translate(298,0)" x2="0" y2="5" stroke="#888" stroke-width="1" opacity="1"/><line transform="translate(310,0)" x2="0" y2="5" stroke="#888" stroke-width="1" opacity="1"/><line transform="translate(323,0)" x2="0" y2="5" stroke="#888" stroke-width="1" opacity="1"/><line transform="translate(335,0)" x2="0" y2="5" stroke="#888" stroke-width="1" opacity="1"/><line transform="translate(347,0)" x2="0" y2="5" stroke="#888" stroke-width="1" opacity="1"/><line transform="translate(359,0)" x2="0" y2="5" stroke="#888" stroke-width="1" opacity="1"/><line transform="translate(371,0)" x2="0" y2="5" stroke="#888" stroke-width="1" opacity="1"/><line transform="translate(384,0)" x2="0" y2="5" stroke="#888" stroke-width="1" opacity="1"/><line transform="translate(396,0)" x2="0" y2="5" stroke="#888" stroke-width="1" opacity="1"/><line transform="translate(408,0)" x2="0" y2="5" stroke="#888" stroke-width="1" opacity="1"/><line transform="translate(420,0)" x2="0" y2="5" stroke="#888" stroke-width="1" opacity="1"/><line transform="translate(432,0)" x2="0" y2="5" stroke="#888" stroke-width="1" opacity="1"/><line transform="translate(445,0)" x2="0" y2="5" stroke="#888" stroke-width="1" opacity="1"/><line transform="translate(457,0)" x2="0" y2="5" stroke="#888" stroke-width="1" opacity="1"/><line transform="translate(469,0)" x2="0" y2="5" stroke="#888" stroke-width="1" opacity="1"/><line transform="translate(481,0)" x2="0" y2="5" stroke="#888" stroke-width="1" opacity="1"/><line transform="translate(493,0)" x2="0" y2="5" stroke="#888" stroke-width="1" opacity="1"/></g><g class="mark-text role-axis-label" pointer-events="none"><text text-anchor="end" transform="translate(5.59756097560977,7) rotate(270) translate(0,3)" font-family="sans-serif" font-size="10px" fill="#000" opacity="1">Winnie the Pooh</text><text text-anchor="end" transform="translate(17.792682926829283,7) rotate(270) translate(0,3)" font-family="sans-serif" font-size="10px" fill="#000" opacity="1">Aurora</text><text text-anchor="end" transform="translate(29.987804878048795,7) rotate(270) translate(0,3)" font-family="sans-serif" font-size="10px" fill="#000" opacity="1">Taran</text><text text-anchor="end" transform="translate(42.18292682926831,7) rotate(270) translate(0,3)" font-family="sans-serif" font-size="10px" fill="#000" opacity="1">Basil</text><text text-anchor="end" transform="translate(54.378048780487816,7) rotate(270) translate(0,3)" font-family="sans-serif" font-size="10px" fill="#000" opacity="1">Jim Hawkins</text><text text-anchor="end" transform="translate(66.57317073170734,7) rotate(270) translate(0,3)" font-family="sans-serif" font-size="10px" fill="#000" opacity="1">Maggie</text><text text-anchor="end" transform="translate(78.76829268292684,7) rotate(270) translate(0,3)" font-family="sans-serif" font-size="10px" fill="#000" opacity="1">Oliver</text><text text-anchor="end" transform="translate(90.96341463414636,7) rotate(270) translate(0,3)" font-family="sans-serif" font-size="10px" fill="#000" opacity="1">Bernard and Miss Bianca</text><text text-anchor="end" transform="translate(103.15853658536587,7) rotate(270) translate(0,3)" font-family="sans-serif" font-size="10px" fill="#000" opacity="1">Tiana</text><text text-anchor="end" transform="translate(115.35365853658537,7) rotate(270) translate(0,3)" font-family="sans-serif" font-size="10px" fill="#000" opacity="1">Kenai</text><text text-anchor="end" transform="translate(127.54878048780489,7) rotate(270) translate(0,3)" font-family="sans-serif" font-size="10px" fill="#000" opacity="1">Lewis</text><text text-anchor="end" transform="translate(139.74390243902442,7) rotate(270) translate(0,3)" font-family="sans-serif" font-size="10px" fill="#000" opacity="1">Milo Thatch</text><text text-anchor="end" transform="translate(151.93902439024393,7) rotate(270) translate(0,3)" font-family="sans-serif" font-size="10px" fill="#000" opacity="1">Tod and Copper</text><text text-anchor="end" transform="translate(164.13414634146343,7) rotate(270) translate(0,3)" font-family="sans-serif" font-size="10px" fill="#000" opacity="1">Bolt</text><text text-anchor="end" transform="translate(176.32926829268297,7) rotate(270) translate(0,3)" font-family="sans-serif" font-size="10px" fill="#000" opacity="1">Kuzco</text><text text-anchor="end" transform="translate(188.52439024390247,7) rotate(270) translate(0,3)" font-family="sans-serif" font-size="10px" fill="#000" opacity="1">Arthur</text><text text-anchor="end" transform="translate(200.71951219512198,7) rotate(270) translate(0,3)" font-family="sans-serif" font-size="10px" fill="#000" opacity="1">Ace Cluck</text><text text-anchor="end" transform="translate(212.91463414634148,7) rotate(270) translate(0,3)" font-family="sans-serif" font-size="10px" fill="#000" opacity="1">Hercules</text><text text-anchor="end" transform="translate(225.109756097561,7) rotate(270) translate(0,3)" font-family="sans-serif" font-size="10px" fill="#000" opacity="1">Quasimodo</text><text text-anchor="end" transform="translate(237.30487804878052,7) rotate(270) translate(0,3)" font-family="sans-serif" font-size="10px" fill="#000" opacity="1">Ralph</text><text text-anchor="end" transform="translate(249.50000000000003,7) rotate(270) translate(0,3)" font-family="sans-serif" font-size="10px" fill="#000" opacity="1">Lilo and Stitch</text><text text-anchor="end" transform="translate(261.69512195121956,7) rotate(270) translate(0,3)" font-family="sans-serif" font-size="10px" fill="#000" opacity="1">Rapunzel</text><text text-anchor="end" transform="translate(273.89024390243907,7) rotate(270) translate(0,3)" font-family="sans-serif" font-size="10px" fill="#000" opacity="1">Aladar</text><text text-anchor="end" transform="translate(286.0853658536586,7) rotate(270) translate(0,3)" font-family="sans-serif" font-size="10px" fill="#000" opacity="1">Mulan</text><text text-anchor="end" transform="translate(298.2804878048781,7) rotate(270) translate(0,3)" font-family="sans-serif" font-size="10px" fill="#000" opacity="1">Ariel</text><text text-anchor="end" transform="translate(310.4756097560976,7) rotate(270) translate(0,3)" font-family="sans-serif" font-size="10px" fill="#000" opacity="1">Hiro Hamada</text><text text-anchor="end" transform="translate(322.6707317073171,7) rotate(270) translate(0,3)" font-family="sans-serif" font-size="10px" fill="#000" opacity="1">Moana</text><text text-anchor="end" transform="translate(334.8658536585366,7) rotate(270) translate(0,3)" font-family="sans-serif" font-size="10px" fill="#000" opacity="1">Thomas and Duchess</text><text text-anchor="end" transform="translate(347.06097560975616,7) rotate(270) translate(0,3)" font-family="sans-serif" font-size="10px" fill="#000" opacity="1">Pocahontas</text><text text-anchor="end" transform="translate(359.25609756097566,7) rotate(270) translate(0,3)" font-family="sans-serif" font-size="10px" fill="#000" opacity="1">Tarzan</text><text text-anchor="end" transform="translate(371.45121951219517,7) rotate(270) translate(0,3)" font-family="sans-serif" font-size="10px" fill="#000" opacity="1">Judy Hopps</text><text text-anchor="end" transform="translate(383.6463414634147,7) rotate(270) translate(0,3)" font-family="sans-serif" font-size="10px" fill="#000" opacity="1">Alice</text><text text-anchor="end" transform="translate(395.8414634146342,7) rotate(270) translate(0,3)" font-family="sans-serif" font-size="10px" fill="#000" opacity="1">Belle</text><text text-anchor="end" transform="translate(408.0365853658537,7) rotate(270) translate(0,3)" font-family="sans-serif" font-size="10px" fill="#000" opacity="1">Mowgli</text><text text-anchor="end" transform="translate(420.2317073170732,7) rotate(270) translate(0,3)" font-family="sans-serif" font-size="10px" fill="#000" opacity="1">Elsa</text><text text-anchor="end" transform="translate(432.4268292682927,7) rotate(270) translate(0,3)" font-family="sans-serif" font-size="10px" fill="#000" opacity="1">Aladdin</text><text text-anchor="end" transform="translate(444.6219512195122,7) rotate(270) translate(0,3)" font-family="sans-serif" font-size="10px" fill="#000" opacity="1">Cinderella</text><text text-anchor="end" transform="translate(456.81707317073176,7) rotate(270) translate(0,3)" font-family="sans-serif" font-size="10px" fill="#000" opacity="1">Simba</text><text text-anchor="end" transform="translate(469.01219512195127,7) rotate(270) translate(0,3)" font-family="sans-serif" font-size="10px" fill="#000" opacity="1">Lady and Tramp</text><text text-anchor="end" transform="translate(481.20731707317077,7) rotate(270) translate(0,3)" font-family="sans-serif" font-size="10px" fill="#000" opacity="1">Pinocchio</text><text text-anchor="end" transform="translate(493.4024390243903,7) rotate(270) translate(0,3)" font-family="sans-serif" font-size="10px" fill="#000" opacity="1">Snow White</text></g><g class="mark-rule role-axis-domain" pointer-events="none"><line transform="translate(0,0)" x2="500" y2="0" stroke="#888" stroke-width="1" opacity="1"/></g><g class="mark-text role-axis-title" pointer-events="none"><text text-anchor="middle" transform="translate(250,131.7236328125)" font-family="sans-serif" font-size="11px" font-weight="bold" fill="#000" opacity="1">Hero</text></g></g><path class="foreground" aria-hidden="true" d="" pointer-events="none" display="none"/></g></g><g class="mark-group role-axis" role="graphics-symbol" aria-roledescription="axis" aria-label="Y-axis titled 'Inflation_adjusted_gross' for a linear scale with values from 0 to 5,500,000,000"><g transform="translate(0.5,0.5)"><path class="background" aria-hidden="true" d="M0,0h0v0h0Z" pointer-events="none"/><g><g class="mark-rule role-axis-tick" pointer-events="none"><line transform="translate(0,300)" x2="-5" y2="0" stroke="#888" stroke-width="1" opacity="1"/><line transform="translate(0,273)" x2="-5" y2="0" stroke="#888" stroke-width="1" opacity="1"/><line transform="translate(0,245)" x2="-5" y2="0" stroke="#888" stroke-width="1" opacity="1"/><line transform="translate(0,218)" x2="-5" y2="0" stroke="#888" stroke-width="1" opacity="1"/><line transform="translate(0,191)" x2="-5" y2="0" stroke="#888" stroke-width="1" opacity="1"/><line transform="translate(0,164)" x2="-5" y2="0" stroke="#888" stroke-width="1" opacity="1"/><line transform="translate(0,136)" x2="-5" y2="0" stroke="#888" stroke-width="1" opacity="1"/><line transform="translate(0,109)" x2="-5" y2="0" stroke="#888" stroke-width="1" opacity="1"/><line transform="translate(0,82)" x2="-5" y2="0" stroke="#888" stroke-width="1" opacity="1"/><line transform="translate(0,55)" x2="-5" y2="0" stroke="#888" stroke-width="1" opacity="1"/><line transform="translate(0,27)" x2="-5" y2="0" stroke="#888" stroke-width="1" opacity="1"/><line transform="translate(0,0)" x2="-5" y2="0" stroke="#888" stroke-width="1" opacity="1"/></g><g class="mark-text role-axis-label" pointer-events="none"><text text-anchor="end" transform="translate(-7,303)" font-family="sans-serif" font-size="10px" fill="#000" opacity="1">0</text><text text-anchor="end" transform="translate(-7,275.7272727272727)" font-family="sans-serif" font-size="10px" fill="#000" opacity="1">500,000,000</text><text text-anchor="end" transform="translate(-7,248.45454545454544)" font-family="sans-serif" font-size="10px" fill="#000" opacity="1">1,000,000,000</text><text text-anchor="end" transform="translate(-7,221.1818181818182)" font-family="sans-serif" font-size="10px" fill="#000" opacity="1">1,500,000,000</text><text text-anchor="end" transform="translate(-7,193.9090909090909)" font-family="sans-serif" font-size="10px" fill="#000" opacity="1">2,000,000,000</text><text text-anchor="end" transform="translate(-7,166.63636363636363)" font-family="sans-serif" font-size="10px" fill="#000" opacity="1">2,500,000,000</text><text text-anchor="end" transform="translate(-7,139.36363636363637)" font-family="sans-serif" font-size="10px" fill="#000" opacity="1">3,000,000,000</text><text text-anchor="end" transform="translate(-7,112.0909090909091)" font-family="sans-serif" font-size="10px" fill="#000" opacity="1">3,500,000,000</text><text text-anchor="end" transform="translate(-7,84.81818181818181)" font-family="sans-serif" font-size="10px" fill="#000" opacity="1">4,000,000,000</text><text text-anchor="end" transform="translate(-7,57.54545454545453)" font-family="sans-serif" font-size="10px" fill="#000" opacity="1">4,500,000,000</text><text text-anchor="end" transform="translate(-7,30.27272727272728)" font-family="sans-serif" font-size="10px" fill="#000" opacity="1">5,000,000,000</text><text text-anchor="end" transform="translate(-7,3)" font-family="sans-serif" font-size="10px" fill="#000" opacity="1">5,500,000,000</text></g><g class="mark-rule role-axis-domain" pointer-events="none"><line transform="translate(0,300)" x2="0" y2="-300" stroke="#888" stroke-width="1" opacity="1"/></g><g class="mark-text role-axis-title" pointer-events="none"><text text-anchor="middle" transform="translate(-74.9501953125,150) rotate(-90) translate(0,-2)" font-family="sans-serif" font-size="11px" font-weight="bold" fill="#000" opacity="1">Inflation_adjusted_gross</text></g></g><path class="foreground" aria-hidden="true" d="" pointer-events="none" display="none"/></g></g><g class="mark-rect role-mark marks" role="graphics-object" aria-roledescription="rect mark container"><path aria-label="Hero: Snow White; Inflation_adjusted_gross: 5228953251" role="graphics-symbol" aria-roledescription="bar" d="M488.4146341463415,14.784368127272728h10.975609756097562v285.2156318727273h-10.975609756097562Z" fill="pink"/><path aria-label="Hero: Pinocchio; Inflation_adjusted_gross: 2188229052" role="graphics-symbol" aria-roledescription="bar" d="M476.219512195122,180.6420517090909h10.975609756097562v119.35794829090909h-10.975609756097562Z" fill="pink"/><path aria-label="Hero: Lady and Tramp; Inflation_adjusted_gross: 1236035515" role="graphics-symbol" aria-roledescription="bar" d="M464.0243902439025,232.579881h10.975609756097562v67.420119h-10.975609756097562Z" fill="pink"/><path aria-label="Hero: Simba; Inflation_adjusted_gross: 761640898" role="graphics-symbol" aria-roledescription="bar" d="M451.82926829268297,258.4559510181818h10.975609756097562v41.54404898181821h-10.975609756097562Z" fill="pink"/><path aria-label="Hero: Cinderella; Inflation_adjusted_gross: 560880041.5" role="graphics-symbol" aria-roledescription="bar" d="M439.6341463414634,269.4065431909091h10.975609756097562v30.593456809090924h-10.975609756097562Z" fill="pink"/><path aria-label="Hero: Aladdin; Inflation_adjusted_gross: 441969178" role="graphics-symbol" aria-roledescription="bar" d="M427.4390243902439,275.8925902909091h10.975609756097562v24.107409709090916h-10.975609756097562Z" fill="pink"/><path aria-label="Hero: Elsa; Inflation_adjusted_gross: 414997174" role="graphics-symbol" aria-roledescription="bar" d="M415.2439024390244,277.3637905090909h10.975609756097562v22.636209490909096h-10.975609756097562Z" fill="pink"/><path aria-label="Hero: Mowgli; Inflation_adjusted_gross: 414181263.333" role="graphics-symbol" aria-roledescription="bar" d="M403.0487804878049,277.40829472727273h10.975609756097562v22.591705272727268h-10.975609756097562Z" fill="pink"/><path aria-label="Hero: Belle; Inflation_adjusted_gross: 363017667" role="graphics-symbol" aria-roledescription="bar" d="M390.8536585365854,280.19903634545454h10.975609756097562v19.800963654545455h-10.975609756097562Z" fill="pink"/><path aria-label="Hero: Alice; Inflation_adjusted_gross: 357063499" role="graphics-symbol" aria-roledescription="bar" d="M378.6585365853659,280.52380914545455h10.975609756097562v19.47619085454545h-10.975609756097562Z" fill="pink"/><path aria-label="Hero: Judy Hopps; Inflation_adjusted_gross: 341268248" role="graphics-symbol" aria-roledescription="bar" d="M366.4634146341464,281.38536829090907h10.975609756097562v18.61463170909093h-10.975609756097562Z" fill="pink"/><path aria-label="Hero: Tarzan; Inflation_adjusted_gross: 283900254" role="graphics-symbol" aria-roledescription="bar" d="M354.26829268292687,284.5145316h10.975609756097562v15.485468400000002h-10.975609756097562Z" fill="pink"/><path aria-label="Hero: Pocahontas; Inflation_adjusted_gross: 274370957" role="graphics-symbol" aria-roledescription="bar" d="M342.07317073170736,285.0343114363636h10.975609756097562v14.965688563636377h-10.975609756097562Z" fill="pink"/><path aria-label="Hero: Thomas and Duchess; Inflation_adjusted_gross: 255161499" role="graphics-symbol" aria-roledescription="bar" d="M329.8780487804878,286.08210005454544h10.975609756097562v13.917899945454565h-10.975609756097562Z" fill="pink"/><path aria-label="Hero: Moana; Inflation_adjusted_gross: 246082029" role="graphics-symbol" aria-roledescription="bar" d="M317.6829268292683,286.5773438727273h10.975609756097562v13.422656127272717h-10.975609756097562Z" fill="pink"/><path aria-label="Hero: Hiro Hamada; Inflation_adjusted_gross: 229249222" role="graphics-symbol" aria-roledescription="bar" d="M305.4878048780488,287.4954969818182h10.975609756097562v12.504503018181822h-10.975609756097562Z" fill="pink"/><path aria-label="Hero: Ariel; Inflation_adjusted_gross: 223726012" role="graphics-symbol" aria-roledescription="bar" d="M293.2926829268293,287.7967629818182h10.975609756097562v12.203237018181824h-10.975609756097562Z" fill="pink"/><path aria-label="Hero: Mulan; Inflation_adjusted_gross: 216807832" role="graphics-symbol" aria-roledescription="bar" d="M281.0975609756098,288.1741182545455h10.975609756097562v11.825881745454524h-10.975609756097562Z" fill="pink"/><path aria-label="Hero: Aladar; Inflation_adjusted_gross: 215438985" role="graphics-symbol" aria-roledescription="bar" d="M268.9024390243903,288.2487826363636h10.975609756097562v11.751217363636385h-10.975609756097562Z" fill="pink"/><path aria-label="Hero: Rapunzel; Inflation_adjusted_gross: 214388548" role="graphics-symbol" aria-roledescription="bar" d="M256.70731707317077,288.3060792h10.975609756097562v11.6939208h-10.975609756097562Z" fill="pink"/><path aria-label="Hero: Lilo and Stitch; Inflation_adjusted_gross: 211506702" role="graphics-symbol" aria-roledescription="bar" d="M244.51219512195124,288.4632708h10.975609756097562v11.536729200000025h-10.975609756097562Z" fill="pink"/><path aria-label="Hero: Ralph; Inflation_adjusted_gross: 200354959" role="graphics-symbol" aria-roledescription="bar" d="M232.31707317073173,289.0715476909091h10.975609756097562v10.928452309090915h-10.975609756097562Z" fill="pink"/><path aria-label="Hero: Quasimodo; Inflation_adjusted_gross: 190988799" role="graphics-symbol" aria-roledescription="bar" d="M220.1219512195122,289.5824291454545h10.975609756097562v10.417570854545488h-10.975609756097562Z" fill="pink"/><path aria-label="Hero: Hercules; Inflation_adjusted_gross: 182029412" role="graphics-symbol" aria-roledescription="bar" d="M207.9268292682927,290.0711229818182h10.975609756097562v9.928877018181822h-10.975609756097562Z" fill="pink"/><path aria-label="Hero: Ace Cluck; Inflation_adjusted_gross: 177954661" role="graphics-symbol" aria-roledescription="bar" d="M195.7317073170732,290.2933821272727h10.975609756097562v9.706617872727293h-10.975609756097562Z" fill="pink"/><path aria-label="Hero: Arthur; Inflation_adjusted_gross: 153870834" role="graphics-symbol" aria-roledescription="bar" d="M183.53658536585368,291.6070454181818h10.975609756097562v8.392954581818174h-10.975609756097562Z" fill="pink"/><path aria-label="Hero: Kuzco; Inflation_adjusted_gross: 136789252" role="graphics-symbol" aria-roledescription="bar" d="M171.34146341463418,292.53876807272724h10.975609756097562v7.461231927272763h-10.975609756097562Z" fill="pink"/><path aria-label="Hero: Bolt; Inflation_adjusted_gross: 133702498" role="graphics-symbol" aria-roledescription="bar" d="M159.14634146341464,292.70713647272726h10.975609756097562v7.292863527272743h-10.975609756097562Z" fill="pink"/><path aria-label="Hero: Tod and Copper; Inflation_adjusted_gross: 133118889" role="graphics-symbol" aria-roledescription="bar" d="M146.95121951219514,292.7389696909091h10.975609756097562v7.261030309090927h-10.975609756097562Z" fill="pink"/><path aria-label="Hero: Milo Thatch; Inflation_adjusted_gross: 125188122" role="graphics-symbol" aria-roledescription="bar" d="M134.75609756097563,293.1715569818182h10.975609756097562v6.828443018181815h-10.975609756097562Z" fill="pink"/><path aria-label="Hero: Lewis; Inflation_adjusted_gross: 119860589" role="graphics-symbol" aria-roledescription="bar" d="M122.56097560975611,293.4621496909091h10.975609756097562v6.5378503090909135h-10.975609756097562Z" fill="pink"/><path aria-label="Hero: Kenai; Inflation_adjusted_gross: 119218333" role="graphics-symbol" aria-roledescription="bar" d="M110.3658536585366,293.4971818363636h10.975609756097562v6.502818163636391h-10.975609756097562Z" fill="pink"/><path aria-label="Hero: Tiana; Inflation_adjusted_gross: 116316457" role="graphics-symbol" aria-roledescription="bar" d="M98.17073170731709,293.6554659818182h10.975609756097562v6.3445340181817755h-10.975609756097562Z" fill="pink"/><path aria-label="Hero: Bernard and Miss Bianca; Inflation_adjusted_gross: 107770321" role="graphics-symbol" aria-roledescription="bar" d="M85.97560975609758,294.1216188545455h10.975609756097562v5.878381145454512h-10.975609756097562Z" fill="pink"/><path aria-label="Hero: Oliver; Inflation_adjusted_gross: 102254492" role="graphics-symbol" aria-roledescription="bar" d="M73.78048780487806,294.42248225454546h10.975609756097562v5.577517745454543h-10.975609756097562Z" fill="pink"/><path aria-label="Hero: Maggie; Inflation_adjusted_gross: 67910166" role="graphics-symbol" aria-roledescription="bar" d="M61.58536585365855,296.2958091272727h10.975609756097562v3.704190872727281h-10.975609756097562Z" fill="pink"/><path aria-label="Hero: Jim Hawkins; Inflation_adjusted_gross: 55189145" role="graphics-symbol" aria-roledescription="bar" d="M49.39024390243904,296.989683h10.975609756097562v3.0103169999999864h-10.975609756097562Z" fill="pink"/><path aria-label="Hero: Basil; Inflation_adjusted_gross: 53637367" role="graphics-symbol" aria-roledescription="bar" d="M37.19512195121953,297.07432543636367h10.975609756097562v2.925674563636335h-10.975609756097562Z" fill="pink"/><path aria-label="Hero: Taran; Inflation_adjusted_gross: 50553142" role="graphics-symbol" aria-roledescription="bar" d="M25.000000000000014,297.2425558909091h10.975609756097562v2.7574441090908977h-10.975609756097562Z" fill="pink"/><path aria-label="Hero: Aurora; Inflation_adjusted_gross: 21505832" role="graphics-symbol" aria-roledescription="bar" d="M12.804878048780502,298.8269546181818h10.975609756097562v1.1730453818182127h-10.975609756097562Z" fill="pink"/><path aria-label="Hero: Winnie the Pooh; Inflation_adjusted_gross: 14187934.5" role="graphics-symbol" aria-roledescription="bar" d="M0.6097560975609895,299.2261126636364h10.975609756097562v0.7738873363636003h-10.975609756097562Z" fill="pink"/></g><g class="mark-group role-title"><g transform="translate(250,-22)"><path class="background" aria-hidden="true" d="M0,0h0v0h0Z" pointer-events="none"/><g><g class="mark-text role-title-text" role="graphics-symbol" aria-roledescription="title" aria-label="Title text 'Hero vs. Inflation_adjusted_gross'" pointer-events="none"><text text-anchor="middle" transform="translate(0,10)" font-family="sans-serif" font-size="13px" font-weight="bold" fill="#000" opacity="1">Hero vs. Inflation_adjusted_gross</text></g></g><path class="foreground" aria-hidden="true" d="" pointer-events="none" display="none"/></g></g></g><path class="foreground" aria-hidden="true" d="" display="none"/></g></g></g></svg>