<svg xmlns="http://www.w3.org/2000/svg" xmlns:xlink="http://www.w3.org/1999/xlink" version="1.1" class="marks" width="588" height="445" viewBox="0 0 588 445"><rect width="588" height="445" fill="white"/><g fill="none" stroke-miterlimit="10" transform="translate(83,22)"><g class="mark-group role-frame root" role="graphics-object" aria-roledescription="group mark container"><g transform="translate(0,0)"><path class="background" aria-hidden="true" d="M0.5,0.5h500v300h-500Z" stroke="#ddd"/><g><g class="mark-group role-axis" aria-hidden="true"><g transform="translate(0.5,0.5)"><path class="background" aria-hidden="true" d="M0,0h0v0h0Z" pointer-events="none"/><g><g class="mark-rule role-axis-grid" pointer-events="none"><line transform="translate(0,300)" x2="500" y2="0" stroke="#ddd" stroke-width="1" opacity="1"/><line transform="translate(0,254)" x2="500" y2="0" stroke="#ddd" stroke-width="1" opacity="1"/><line transform="translate(0,208)" x2="500" y2="0" stroke="#ddd" stroke-width="1" opacity="1"/><line transform="translate(0,162)" x2="500" y2="0" stroke="#ddd" stroke-width="1" opacity="1"/><line transform="translate(0,115)" x2="500" y2="0" stroke="#ddd" stroke-width="1" opacity="1"/><line transform="translate(0,69)" x2="500" y2="0" stroke="#ddd" stroke-width="1" opacity="1"/><line transform="translate(0,23)" x2="500" y2="0" stroke="#ddd" stroke-width="1" opacity="1"/></g></g><path class="foreground" aria-hidden="true" d="" pointer-events="none" display="none"/></g></g><g class="mark-group role-axis" role="graphics-symbol" aria-roledescription="axis" aria-label="X-axis titled 'Genre' for a discrete scale with 12 values: Documentary, Horror, Black Comedy, Concert/Performance, Drama, ending with Musical"><g transform="translate(0.5,300.5)"><path class="background" aria-hidden="true" d="M0,0h0v0h0Z" pointer-events="none"/><g><g class="mark-rule role-axis-tick" pointer-events="none"><line transform="translate(20,0)" x2="0" y2="5" stroke="#888" stroke-width="1" opacity="1"/><line transform="translate(62,0)" x2="0" y2="5" stroke="#888" stroke-width="1" opacity="1"/><line transform="translate(104,0)" x2="0" y2="5" stroke="#888" stroke-width="1" opacity="1"/><line transform="translate(145,0)" x2="0" y2="5" stroke="#888" stroke-width="1" opacity="1"/><line transform="translate(187,0)" x2="0" y2="5" stroke="#888" stroke-width="1" opacity="1"/><line transform="translate(229,0)" x2="0" y2="5" stroke="#888" stroke-width="1" opacity="1"/><line transform="translate(270,0)" x2="0" y2="5" stroke="#888" stroke-width="1" opacity="1"/><line transform="translate(312,0)" x2="0" y2="5" stroke="#888" stroke-width="1" opacity="1"/><line transform="translate(354,0)" x2="0" y2="5" stroke="#888" stroke-width="1" opacity="1"/><line transform="translate(395,0)" x2="0" y2="5" stroke="#888" stroke-width="1" opacity="1"/><line transform="translate(437,0)" x2="0" y2="5" stroke="#888" stroke-width="1" opacity="1"/><line transform="translate(479,0)" x2="0" y2="5" stroke="#888" stroke-width="1" opacity="1"/></g><g class="mark-text role-axis-label" pointer-events="none"><text text-anchor="end" transform="translate(20.333333333333343,7) rotate(270) translate(0,3)" font-family="sans-serif" font-size="10px" fill="#000" opacity="1">Documentary</text><text text-anchor="end" transform="translate(62.00000000000001,7) rotate(270) translate(0,3)" font-family="sans-serif" font-size="10px" fill="#000" opacity="1">Horror</text><text text-anchor="end" transform="translate(103.66666666666667,7) rotate(270) translate(0,3)" font-family="sans-serif" font-size="10px" fill="#000" opacity="1">Black Comedy</text><text text-anchor="end" transform="translate(145.33333333333334,7) rotate(270) translate(0,3)" font-family="sans-serif" font-size="10px" fill="#000" opacity="1">Concert/Performance</text><text text-anchor="end" transform="translate(187,7) rotate(270) translate(0,3)" font-family="sans-serif" font-size="10px" fill="#000" opacity="1">Drama</text><text text-anchor="end" transform="translate(228.66666666666666,7) rotate(270) translate(0,3)" font-family="sans-serif" font-size="10px" fill="#000" opacity="1">Western</text><text text-anchor="end" transform="translate(270.33333333333337,7) rotate(270) translate(0,3)" font-family="sans-serif" font-size="10px" fill="#000" opacity="1">Romantic Comedy</text><text text-anchor="end" transform="translate(312,7) rotate(270) translate(0,3)" font-family="sans-serif" font-size="10px" fill="#000" opacity="1">Comedy</text><text text-anchor="end" transform="translate(353.66666666666663,7) rotate(270) translate(0,3)" font-family="sans-serif" font-size="10px" fill="#000" opacity="1">Thriller/Suspense</text><text text-anchor="end" transform="translate(395.33333333333337,7) rotate(270) translate(0,3)" font-family="sans-serif" font-size="10px" fill="#000" opacity="1">Action</text><text text-anchor="end" transform="translate(437,7) rotate(270) translate(0,3)" font-family="sans-serif" font-size="10px" fill="#000" opacity="1">Adventure</text><text text-anchor="end" transform="translate(478.66666666666663,7) rotate(270) translate(0,3)" font-family="sans-serif" font-size="10px" fill="#000" opacity="1">Musical</text></g><g class="mark-rule role-axis-domain" pointer-events="none"><line transform="translate(0,0)" x2="500" y2="0" stroke="#888" stroke-width="1" opacity="1"/></g><g class="mark-text role-axis-title" pointer-events="none"><text text-anchor="middle" transform="translate(250,115.0390625)" font-family="sans-serif" font-size="11px" font-weight="bold" fill="#000" opacity="1">Genre</text></g></g><path class="foreground" aria-hidden="true" d="" pointer-events="none" display="none"/></g></g><g class="mark-group role-axis" role="graphics-symbol" aria-roledescription="axis" aria-label="Y-axis titled 'Inflation_adjusted_gross' for a linear scale with values from 0 to 650,000,000"><g transform="translate(0.5,0.5)"><path class="background" aria-hidden="true" d="M0,0h0v0h0Z" pointer-events="none"/><g><g class="mark-rule role-axis-tick" pointer-events="none"><line transform="translate(0,300)" x2="-5" y2="0" stroke="#888" stroke-width="1" opacity="1"/><line transform="translate(0,254)" x2="-5" y2="0" stroke="#888" stroke-width="1" opacity="1"/><line transform="translate(0,208)" x2="-5" y2="0" stroke="#888" stroke-width="1" opacity="1"/><line transform="translate(0,162)" x2="-5" y2="0" stroke="#888" stroke-width="1" opacity="1"/><line transform="translate(0,115)" x2="-5" y2="0" stroke="#888" stroke-width="1" opacity="1"/><line transform="translate(0,69)" x2="-5" y2="0" stroke="#888" stroke-width="1" opacity="1"/><line transform="translate(0,23)" x2="-5" y2="0" stroke="#888" stroke-width="1" opacity="1"/></g><g class="mark-text role-axis-label" pointer-events="none"><text text-anchor="end" transform="translate(-7,303)" font-family="sans-serif" font-size="10px" fill="#000" opacity="1">0</text><text text-anchor="end" transform="translate(-7,256.8461538461538)" font-family="sans-serif" font-size="10px" fill="#000" opacity="1">100,000,000</text><text text-anchor="end" transform="translate(-7,210.69230769230768)" font-family="sans-serif" font-size="10px" fill="#000" opacity="1">200,000,000</text><text text-anchor="end" transform="translate(-7,164.53846153846152)" font-family="sans-serif" font-size="10px" fill="#000" opacity="1">300,000,000</text><text text-anchor="end" transform="translate(-7,118.38461538461537)" font-family="sans-serif" font-size="10px" fill="#000" opacity="1">400,000,000</text><text text-anchor="end" transform="translate(-7,72.23076923076921)" font-family="sans-serif" font-size="10px" fill="#000" opacity="1">500,000,000</text><text text-anchor="end" transform="translate(-7,26.076923076923062)" font-family="sans-serif" font-size="10px" fill="#000" opacity="1">600,000,000</text></g><g class="mark-rule role-axis-domain" pointer-events="none"><line transform="translate(0,300)" x2="0" y2="-300" stroke="#888" stroke-width="1" opacity="1"/></g><g class="mark-text role-axis-title" pointer-events="none"><text text-anchor="middle" transform="translate(-66.6103515625,150) rotate(-90) translate(0,-2)" font-family="sans-serif" font-size="11px" font-weight="bold" fill="#000" opacity="1">Inflation_adjusted_gross</text></g></g><path class="foreground" aria-hidden="true" d="" pointer-events="none" display="none"/></g></g><g class="mark-rect role-mark marks" role="graphics-object" aria-roledescription="rect mark container"><path aria-label="Genre: Musical; Inflation_adjusted_gross: 603597861" role="graphics-symbol" aria-roledescription="bar" d="M460.41666666666663,21.416371846153847h37.5v278.5836281538462h-37.5Z" fill="pink"/><path aria-label="Genre: Adventure; Inflation_adjusted_gross: 190397412.078" role="graphics-symbol" aria-roledescription="bar" d="M418.75,212.12427134883723h37.5v87.87572865116277h-37.5Z" fill="pink"/><path aria-label="Genre: Action; Inflation_adjusted_gross: 137473419.65" role="graphics-symbol" aria-roledescription="bar" d="M377.08333333333337,236.5507293923077h37.5v63.44927060769231h-37.5Z" fill="pink"/><path aria-label="Genre: Thriller/Suspense; Inflation_adjusted_gross: 89653789.75" role="graphics-symbol" aria-roledescription="bar" d="M335.41666666666663,258.6213278076923h37.5v41.378672192307704h-37.5Z" fill="pink"/><path aria-label="Genre: Comedy; Inflation_adjusted_gross: 84667730.2912" role="graphics-symbol" aria-roledescription="bar" d="M293.75,260.92258601944206h37.5v39.077413980557935h-37.5Z" fill="pink"/><path aria-label="Genre: Romantic Comedy; Inflation_adjusted_gross: 77777084.0435" role="graphics-symbol" aria-roledescription="bar" d="M252.08333333333334,264.10288428762544h37.5v35.89711571237456h-37.5Z" fill="pink"/><path aria-label="Genre: Western; Inflation_adjusted_gross: 73815706.5714" role="graphics-symbol" aria-roledescription="bar" d="M210.41666666666666,265.93121235164836h37.5v34.068787648351645h-37.5Z" fill="pink"/><path aria-label="Genre: Drama; Inflation_adjusted_gross: 71893021.7895" role="graphics-symbol" aria-roledescription="bar" d="M168.75,266.81860532793524h37.5v33.181394672064755h-37.5Z" fill="pink"/><path aria-label="Genre: Concert/Performance; Inflation_adjusted_gross: 57410839" role="graphics-symbol" aria-roledescription="bar" d="M127.08333333333334,273.5026896923077h37.5v26.497310307692317h-37.5Z" fill="pink"/><path aria-label="Genre: Black Comedy; Inflation_adjusted_gross: 52243491.6667" role="graphics-symbol" aria-roledescription="bar" d="M85.41666666666667,275.88761923076925h37.5v24.112380769230754h-37.5Z" fill="pink"/><path aria-label="Genre: Horror; Inflation_adjusted_gross: 23413848.6667" role="graphics-symbol" aria-roledescription="bar" d="M43.75000000000001,289.1936083076923h37.5v10.806391692307727h-37.5Z" fill="pink"/><path aria-label="Genre: Documentary; Inflation_adjusted_gross: 12718026.125" role="graphics-symbol" aria-roledescription="bar" d="M2.083333333333343,294.1301417884616h37.5v5.869858211538428h-37.5Z" fill="pink"/></g><g class="mark-group role-title"><g transform="translate(250,-17)"><path class="background" aria-hidden="true" d="M0,0h0v0h0Z" pointer-events="none"/><g><g class="mark-text role-title-text" role="graphics-symbol" aria-roledescription="title" aria-label="Title text 'Genre vs. Inflation_adjusted_gross'" pointer-events="none"><text text-anchor="middle" transform="translate(0,10)" font-family="sans-serif" font-size="13px" font-weight="bold" fill="#000" opacity="1">Genre vs. Inflation_adjusted_gross</text></g></g><path class="foreground" aria-hidden="true" d="" pointer-events="none" display="none"/></g></g></g><path class="foreground" aria-hidden="true" d="" display="none"/></g></g></g></svg>