<svg xmlns="http://www.w3.org/2000/svg" xmlns:xlink="http://www.w3.org/1999/xlink" version="1.1" class="marks" width="588" height="466" viewBox="0 0 588 466"><rect width="588" height="466" fill="white"/><g fill="none" stroke-miterlimit="10" transform="translate(83,27)"><g class="mark-group role-frame root" role="graphics-object" aria-roledescription="group mark container"><g transform="translate(0,0)"><path class="background" aria-hidden="true" d="M0.5,0.5h500v300h-500Z" stroke="#ddd"/><g><g class="mark-group role-axis" aria-hidden="true"><g transform="translate(0.5,0.5)"><path class="background" aria-hidden="true" d="M0,0h0v0h0Z" pointer-events="none"/><g><g class="mark-rule role-axis-grid" pointer-events="none"><line transform="translate(0,300)" x2="500" y2="0" stroke="#ddd" stroke-width="1" opacity="1"/><line transform="translate(0,267)" x2="500" y2="0" stroke="#ddd" stroke-width="1" opacity="1"/><line transform="translate(0,233)" x2="500" y2="0" stroke="#ddd" stroke-width="1" opacity="1"/><line transform="translate(0,200)" x2="500" y2="0" stroke="#ddd" stroke-width="1" opacity="1"/><line transform="translate(0,167)" x2="500" y2="0" stroke="#ddd" stroke-width="1" opacity="1"/><line transform="translate(0,133)" x2="500" y2="0" stroke="#ddd" stroke-width="1" opacity="1"/><line transform="translate(0,100)" x2="500" y2="0" stroke="#ddd" stroke-width="1" opacity="1"/><line transform="translate(0,67)" x2="500" y2="0" stroke="#ddd" stroke-width="1" opacity="1"/><line transform="translate(0,33)" x2="500" y2="0" stroke="#ddd" stroke-width="1" opacity="1"/><line transform="translate(0,0)" x2="500" y2="0" stroke="#ddd" stroke-width="1" opacity="1"/></g></g><path class="foreground" aria-hidden="true" d="" pointer-events="none" display="none"/></g></g><g class="mark-group role-axis" role="graphics-symbol" aria-roledescription="axis" aria-label="X-axis titled 'Hero' for a discrete scale with 41 values: Aurora, Winnie the Pooh, Taran, Arthur, Basil, ending with Simba"><g transform="translate(0.5,300.5)"><path class="background" aria-hidden="true" d="M0,0h0v0h0Z" pointer-events="none"/><g><g class="mark-rule role-axis-tick" pointer-events="none"><line transform="translate(6,0)" x2="0" y2="5" stroke="#888" stroke-width="1" opacity="1"/><line transform="translate(18,0)" x2="0" y2="5" stroke="#888" stroke-width="1" opacity="1"/><line transform="translate(30,0)" x2="0" y2="5" stroke="#888" stroke-width="1" opacity="1"/><line transform="translate(42,0)" x2="0" y2="5" stroke="#888" stroke-width="1" opacity="1"/><line transform="translate(54,0)" x2="0" y2="5" stroke="#888" stroke-width="1" opacity="1"/><line transform="translate(67,0)" x2="0" y2="5" stroke="#888" stroke-width="1" opacity="1"/><line transform="translate(79,0)" x2="0" y2="5" stroke="#888" stroke-width="1" opacity="1"/><line transform="translate(91,0)" x2="0" y2="5" stroke="#888" stroke-width="1" opacity="1"/><line transform="translate(103,0)" x2="0" y2="5" stroke="#888" stroke-width="1" opacity="1"/><line transform="translate(115,0)" x2="0" y2="5" stroke="#888" stroke-width="1" opacity="1"/><line transform="translate(128,0)" x2="0" y2="5" stroke="#888" stroke-width="1" opacity="1"/><line transform="translate(140,0)" x2="0" y2="5" stroke="#888" stroke-width="1" opacity="1"/><line transform="translate(152,0)" x2="0" y2="5" stroke="#888" stroke-width="1" opacity="1"/><line transform="translate(164,0)" x2="0" y2="5" stroke="#888" stroke-width="1" opacity="1"/><line transform="translate(176,0)" x2="0" y2="5" stroke="#888" stroke-width="1" opacity="1"/><line transform="translate(189,0)" x2="0" y2="5" stroke="#888" stroke-width="1" opacity="1"/><line transform="translate(201,0)" x2="0" y2="5" stroke="#888" stroke-width="1" opacity="1"/><line transform="translate(213,0)" x2="0" y2="5" stroke="#888" stroke-width="1" opacity="1"/><line transform="translate(225,0)" x2="0" y2="5" stroke="#888" stroke-width="1" opacity="1"/><line transform="translate(237,0)" x2="0" y2="5" stroke="#888" stroke-width="1" opacity="1"/><line transform="translate(250,0)" x2="0" y2="5" stroke="#888" stroke-width="1" opacity="1"/><line transform="translate(262,0)" x2="0" y2="5" stroke="#888" stroke-width="1" opacity="1"/><line transform="translate(274,0)" x2="0" y2="5" stroke="#888" stroke-width="1" opacity="1"/><line transform="translate(286,0)" x2="0" y2="5" stroke="#888" stroke-width="1" opacity="1"/><line transform="translate(298,0)" x2="0" y2="5" stroke="#888" stroke-width="1" opacity="1"/><line transform="translate(310,0)" x2="0" y2="5" stroke="#888" stroke-width="1" opacity="1"/><line transform="translate(323,0)" x2="0" y2="5" stroke="#888" stroke-width="1" opacity="1"/><line transform="translate(335,0)" x2="0" y2="5" stroke="#888" stroke-width="1" opacity="1"/><line transform="translate(347,0)" x2="0" y2="5" stroke="#888" stroke-width="1" opacity="1"/><line transform="translate(359,0)" x2="0" y2="5" stroke="#888" stroke-width="1" opacity="1"/><line transform="translate(371,0)" x2="0" y2="5" stroke="#888" stroke-width="1" opacity="1"/><line transform="translate(384,0)" x2="0" y2="5" stroke="#888" stroke-width="1" opacity="1"/><line transform="translate(396,0)" x2="0" y2="5" stroke="#888" stroke-width="1" opacity="1"/><line transform="translate(408,0)" x2="0" y2="5" stroke="#888" stroke-width="1" opacity="1"/><line transform="translate(420,0)" x2="0" y2="5" stroke="#888" stroke-width="1" opacity="1"/><line transform="translate(432,0)" x2="0" y2="5" stroke="#888" stroke-width="1" opacity="1"/><line transform="translate(445,0)" x2="0" y2="5" stroke="#888" stroke-width="1" opacity="1"/><line transform="translate(457,0)" x2="0" y2="5" stroke="#888" stroke-width="1" opacity="1"/><line transform="translate(469,0)" x2="0" y2="5" stroke="#888" stroke-width="1" opacity="1"/><line transform="translate(481,0)" x2="0" y2="5" stroke="#888" stroke-width="1" opacity="1"/><line transform="translate(493,0)" x2="0" y2="5" stroke="#888" stroke-width="1" opacity="1"/></g><g class="mark-text role-axis-label" pointer-events="none"><text text-anchor="end" transform="translate(5.59756097560977,7) rotate(270) translate(0,3)" font-family="sans-serif" font-size="10px" fill="#000" opacity="1">Aurora</text><text text-anchor="end" transform="translate(17.792682926829283,7) rotate(270) translate(0,3)" font-family="sans-serif" font-size="10px" fill="#000" opacity="1">Winnie the Pooh</text><text text-anchor="end" transform="translate(29.987804878048795,7) rotate(270) translate(0,3)" font-family="sans-serif" font-size="10px" fill="#000" opacity="1">Taran</text><text text-anchor="end" transform="translate(42.18292682926831,7) rotate(270) translate(0,3)" font-family="sans-serif" font-size="10px" fill="#000" opacity="1">Arthur</text><text text-anchor="end" transform="translate(54.378048780487816,7) rotate(270) translate(0,3)" font-family="sans-serif" font-size="10px" fill="#000" opacity="1">Basil</text><text text-anchor="end" transform="translate(66.57317073170734,7) rotate(270) translate(0,3)" font-family="sans-serif" font-size="10px" fill="#000" opacity="1">Jim Hawkins</text><text text-anchor="end" transform="translate(78.76829268292684,7) rotate(270) translate(0,3)" font-family="sans-serif" font-size="10px" fill="#000" opacity="1">Bernard and Miss Bianca</text><text text-anchor="end" transform="translate(90.96341463414636,7) rotate(270) translate(0,3)" font-family="sans-serif" font-size="10px" fill="#000" opacity="1">Tod and Copper</text><text text-anchor="end" transform="translate(103.15853658536587,7) rotate(270) translate(0,3)" font-family="sans-serif" font-size="10px" fill="#000" opacity="1">Oliver</text><text text-anchor="end" transform="translate(115.35365853658537,7) rotate(270) translate(0,3)" font-family="sans-serif" font-size="10px" fill="#000" opacity="1">Maggie</text><text text-anchor="end" transform="translate(127.54878048780489,7) rotate(270) translate(0,3)" font-family="sans-serif" font-size="10px" fill="#000" opacity="1">Thomas and Duchess</text><text text-anchor="end" transform="translate(139.74390243902442,7) rotate(270) translate(0,3)" font-family="sans-serif" font-size="10px" fill="#000" opacity="1">Milo Thatch</text><text text-anchor="end" transform="translate(151.93902439024393,7) rotate(270) translate(0,3)" font-family="sans-serif" font-size="10px" fill="#000" opacity="1">Pinocchio</text><text text-anchor="end" transform="translate(164.13414634146343,7) rotate(270) translate(0,3)" font-family="sans-serif" font-size="10px" fill="#000" opacity="1">Kenai</text><text text-anchor="end" transform="translate(176.32926829268297,7) rotate(270) translate(0,3)" font-family="sans-serif" font-size="10px" fill="#000" opacity="1">Kuzco</text><text text-anchor="end" transform="translate(188.52439024390247,7) rotate(270) translate(0,3)" font-family="sans-serif" font-size="10px" fill="#000" opacity="1">Lady and Tramp</text><text text-anchor="end" transform="translate(200.71951219512198,7) rotate(270) translate(0,3)" font-family="sans-serif" font-size="10px" fill="#000" opacity="1">Lewis</text><text text-anchor="end" transform="translate(212.91463414634148,7) rotate(270) translate(0,3)" font-family="sans-serif" font-size="10px" fill="#000" opacity="1">Hercules</text><text text-anchor="end" transform="translate(225.109756097561,7) rotate(270) translate(0,3)" font-family="sans-serif" font-size="10px" fill="#000" opacity="1">Quasimodo</text><text text-anchor="end" transform="translate(237.30487804878052,7) rotate(270) translate(0,3)" font-family="sans-serif" font-size="10px" fill="#000" opacity="1">Tiana</text><text text-anchor="end" transform="translate(249.50000000000003,7) rotate(270) translate(0,3)" font-family="sans-serif" font-size="10px" fill="#000" opacity="1">Ariel</text><text text-anchor="end" transform="translate(261.69512195121956,7) rotate(270) translate(0,3)" font-family="sans-serif" font-size="10px" fill="#000" opacity="1">Bolt</text><text text-anchor="end" transform="translate(273.89024390243907,7) rotate(270) translate(0,3)" font-family="sans-serif" font-size="10px" fill="#000" opacity="1">Mulan</text><text text-anchor="end" transform="translate(286.0853658536586,7) rotate(270) translate(0,3)" font-family="sans-serif" font-size="10px" fill="#000" opacity="1">Ace Cluck</text><text text-anchor="end" transform="translate(298.2804878048781,7) rotate(270) translate(0,3)" font-family="sans-serif" font-size="10px" fill="#000" opacity="1">Aladar</text><text text-anchor="end" transform="translate(310.4756097560976,7) rotate(270) translate(0,3)" font-family="sans-serif" font-size="10px" fill="#000" opacity="1">Pocahontas</text><text text-anchor="end" transform="translate(322.6707317073171,7) rotate(270) translate(0,3)" font-family="sans-serif" font-size="10px" fill="#000" opacity="1">Cinderella</text><text text-anchor="end" transform="translate(334.8658536585366,7) rotate(270) translate(0,3)" font-family="sans-serif" font-size="10px" fill="#000" opacity="1">Lilo and Stitch</text><text text-anchor="end" transform="translate(347.06097560975616,7) rotate(270) translate(0,3)" font-family="sans-serif" font-size="10px" fill="#000" opacity="1">Tarzan</text><text text-anchor="end" transform="translate(359.25609756097566,7) rotate(270) translate(0,3)" font-family="sans-serif" font-size="10px" fill="#000" opacity="1">Mowgli</text><text text-anchor="end" transform="translate(371.45121951219517,7) rotate(270) translate(0,3)" font-family="sans-serif" font-size="10px" fill="#000" opacity="1">Snow White</text><text text-anchor="end" transform="translate(383.6463414634147,7) rotate(270) translate(0,3)" font-family="sans-serif" font-size="10px" fill="#000" opacity="1">Ralph</text><text text-anchor="end" transform="translate(395.8414634146342,7) rotate(270) translate(0,3)" font-family="sans-serif" font-size="10px" fill="#000" opacity="1">Rapunzel</text><text text-anchor="end" transform="translate(408.0365853658537,7) rotate(270) translate(0,3)" font-family="sans-serif" font-size="10px" fill="#000" opacity="1">Aladdin</text><text text-anchor="end" transform="translate(420.2317073170732,7) rotate(270) translate(0,3)" font-family="sans-serif" font-size="10px" fill="#000" opacity="1">Belle</text><text text-anchor="end" transform="translate(432.4268292682927,7) rotate(270) translate(0,3)" font-family="sans-serif" font-size="10px" fill="#000" opacity="1">Hiro Hamada</text><text text-anchor="end" transform="translate(444.6219512195122,7) rotate(270) translate(0,3)" font-family="sans-serif" font-size="10px" fill="#000" opacity="1">Moana</text><text text-anchor="end" transform="translate(456.81707317073176,7) rotate(270) translate(0,3)" font-family="sans-serif" font-size="10px" fill="#000" opacity="1">Alice</text><text text-anchor="end" transform="translate(469.01219512195127,7) rotate(270) translate(0,3)" font-family="sans-serif" font-size="10px" fill="#000" opacity="1">Judy Hopps</text><text text-anchor="end" transform="translate(481.20731707317077,7) rotate(270) translate(0,3)" font-family="sans-serif" font-size="10px" fill="#000" opacity="1">Elsa</text><text text-anchor="end" transform="translate(493.4024390243903,7) rotate(270) translate(0,3)" font-family="sans-serif" font-size="10px" fill="#000" opacity="1">Simba</text></g><g class="mark-rule role-axis-domain" pointer-events="none"><line transform="translate(0,0)" x2="500" y2="0" stroke="#888" stroke-width="1" opacity="1"/></g><g class="mark-text role-axis-title" pointer-events="none"><text text-anchor="middle" transform="translate(250,131.7236328125)" font-family="sans-serif" font-size="11px" font-weight="bold" fill="#000" opacity="1">Hero</text></g></g><path class="foreground" aria-hidden="true" d="" pointer-events="none" display="none"/></g></g><g class="mark-group role-axis" role="graphics-symbol" aria-roledescription="axis" aria-label="Y-axis titled 'Total_gross' for a linear scale with values from 0 to 450,000,000"><g transform="translate(0.5,0.5)"><path class="background" aria-hidden="true" d="M0,0h0v0h0Z" pointer-events="none"/><g><g class="mark-rule role-axis-tick" pointer-events="none"><line transform="translate(0,300)" x2="-5" y2="0" stroke="#888" stroke-width="1" opacity="1"/><line transform="translate(0,267)" x2="-5" y2="0" stroke="#888" stroke-width="1" opacity="1"/><line transform="translate(0,233)" x2="-5" y2="0" stroke="#888" stroke-width="1" opacity="1"/><line transform="translate(0,200)" x2="-5" y2="0" stroke="#888" stroke-width="1" opacity="1"/><line transform="translate(0,167)" x2="-5" y2="0" stroke="#888" stroke-width="1" opacity="1"/><line transform="translate(0,133)" x2="-5" y2="0" stroke="#888" stroke-width="1" opacity="1"/><line transform="translate(0,100)" x2="-5" y2="0" stroke="#888" stroke-width="1" opacity="1"/><line transform="translate(0,67)" x2="-5" y2="0" stroke="#888" stroke-width="1" opacity="1"/><line transform="translate(0,33)" x2="-5" y2="0" stroke="#888" stroke-width="1" opacity="1"/><line transform="translate(0,0)" x2="-5" y2="0" stroke="#888" stroke-width="1" opacity="1"/></g><g class="mark-text role-axis-label" pointer-events="none"><text text-anchor="end" transform="translate(-7,303)" font-family="sans-serif" font-size="10px" fill="#000" opacity="1">0</text><text text-anchor="end" transform="translate(-7,269.66666666666663)" font-family="sans-serif" font-size="10px" fill="#000" opacity="1">50,000,000</text><text text-anchor="end" transform="translate(-7,236.33333333333334)" font-family="sans-serif" font-size="10px" fill="#000" opacity="1">100,000,000</text><text text-anchor="end" transform="translate(-7,203.00000000000003)" font-family="sans-serif" font-size="10px" fill="#000" opacity="1">150,000,000</text><text text-anchor="end" transform="translate(-7,169.66666666666669)" font-family="sans-serif" font-size="10px" fill="#000" opacity="1">200,000,000</text><text text-anchor="end" transform="translate(-7,136.33333333333331)" font-family="sans-serif" font-size="10px" fill="#000" opacity="1">250,000,000</text><text text-anchor="end" transform="translate(-7,103.00000000000001)" font-family="sans-serif" font-size="10px" fill="#000" opacity="1">300,000,000</text><text text-anchor="end" transform="translate(-7,69.66666666666666)" font-family="sans-serif" font-size="10px" fill="#000" opacity="1">350,000,000</text><text text-anchor="end" transform="translate(-7,36.33333333333335)" font-family="sans-serif" font-size="10px" fill="#000" opacity="1">400,000,000</text><text text-anchor="end" transform="translate(-7,3)" font-family="sans-serif" font-size="10px" fill="#000" opacity="1">450,000,000</text></g><g class="mark-rule role-axis-domain" pointer-events="none"><line transform="translate(0,300)" x2="0" y2="-300" stroke="#888" stroke-width="1" opacity="1"/></g><g class="mark-text role-axis-title" pointer-events="none"><text text-anchor="middle" transform="translate(-66.6103515625,150) rotate(-90) translate(0,-2)" font-family="sans-serif" font-size="11px" font-weight="bold" fill="#000" opacity="1">Total_gross</text></g></g><path class="foreground" aria-hidden="true" d="" pointer-events="none" display="none"/></g></g><g class="mark-rect role-mark marks" role="graphics-object" aria-roledescription="rect mark container"><path aria-label="Hero: Simba; Total_gross: 422780140" role="graphics-symbol" aria-roledescription="bar" d="M488.4146341463415,18.14657333333335h10.975609756097562v281.8534266666667h-10.975609756097562Z" fill="pink"/><path aria-label="Hero: Elsa; Total_gross: 400738009" role="graphics-symbol" aria-roledescription="bar" d="M476.219512195122,32.841327333333325h10.975609756097562v267.1586726666667h-10.975609756097562Z" fill="pink"/><path aria-label="Hero: Judy Hopps; Total_gross: 341268248" role="graphics-symbol" aria-roledescription="bar" d="M464.0243902439025,72.48783466666667h10.975609756097562v227.51216533333331h-10.975609756097562Z" fill="pink"/><path aria-label="Hero: Alice; Total_gross: 334191110" role="graphics-symbol" aria-roledescription="bar" d="M451.82926829268297,77.20592666666666h10.975609756097562v222.79407333333336h-10.975609756097562Z" fill="pink"/><path aria-label="Hero: Moana; Total_gross: 246082029" role="graphics-symbol" aria-roledescription="bar" d="M439.6341463414634,135.945314h10.975609756097562v164.054686h-10.975609756097562Z" fill="pink"/><path aria-label="Hero: Hiro Hamada; Total_gross: 222527828" role="graphics-symbol" aria-roledescription="bar" d="M427.4390243902439,151.64811466666666h10.975609756097562v148.35188533333334h-10.975609756097562Z" fill="pink"/><path aria-label="Hero: Belle; Total_gross: 218951625" role="graphics-symbol" aria-roledescription="bar" d="M415.2439024390244,154.03225h10.975609756097562v145.96775h-10.975609756097562Z" fill="pink"/><path aria-label="Hero: Aladdin; Total_gross: 217350219" role="graphics-symbol" aria-roledescription="bar" d="M403.0487804878049,155.09985400000002h10.975609756097562v144.90014599999998h-10.975609756097562Z" fill="pink"/><path aria-label="Hero: Rapunzel; Total_gross: 200821936" role="graphics-symbol" aria-roledescription="bar" d="M390.8536585365854,166.11870933333336h10.975609756097562v133.88129066666664h-10.975609756097562Z" fill="pink"/><path aria-label="Hero: Ralph; Total_gross: 189412677" role="graphics-symbol" aria-roledescription="bar" d="M378.6585365853659,173.72488199999998h10.975609756097562v126.27511800000002h-10.975609756097562Z" fill="pink"/><path aria-label="Hero: Snow White; Total_gross: 184925485" role="graphics-symbol" aria-roledescription="bar" d="M366.4634146341464,176.71634333333333h10.975609756097562v123.28365666666667h-10.975609756097562Z" fill="pink"/><path aria-label="Hero: Mowgli; Total_gross: 183395693" role="graphics-symbol" aria-roledescription="bar" d="M354.26829268292687,177.73620466666665h10.975609756097562v122.26379533333335h-10.975609756097562Z" fill="pink"/><path aria-label="Hero: Tarzan; Total_gross: 171091819" role="graphics-symbol" aria-roledescription="bar" d="M342.07317073170736,185.93878733333335h10.975609756097562v114.06121266666665h-10.975609756097562Z" fill="pink"/><path aria-label="Hero: Lilo and Stitch; Total_gross: 145771527" role="graphics-symbol" aria-roledescription="bar" d="M329.8780487804878,202.818982h10.975609756097562v97.181018h-10.975609756097562Z" fill="pink"/><path aria-label="Hero: Cinderella; Total_gross: 143075676.5" role="graphics-symbol" aria-roledescription="bar" d="M317.6829268292683,204.61621566666668h10.975609756097562v95.38378433333332h-10.975609756097562Z" fill="pink"/><path aria-label="Hero: Pocahontas; Total_gross: 141579773" role="graphics-symbol" aria-roledescription="bar" d="M305.4878048780488,205.6134846666667h10.975609756097562v94.3865153333333h-10.975609756097562Z" fill="pink"/><path aria-label="Hero: Aladar; Total_gross: 137748063" role="graphics-symbol" aria-roledescription="bar" d="M293.2926829268293,208.167958h10.975609756097562v91.832042h-10.975609756097562Z" fill="pink"/><path aria-label="Hero: Ace Cluck; Total_gross: 135386665" role="graphics-symbol" aria-roledescription="bar" d="M281.0975609756098,209.74222333333333h10.975609756097562v90.25777666666667h-10.975609756097562Z" fill="pink"/><path aria-label="Hero: Mulan; Total_gross: 120620254" role="graphics-symbol" aria-roledescription="bar" d="M268.9024390243903,219.58649733333334h10.975609756097562v80.41350266666666h-10.975609756097562Z" fill="pink"/><path aria-label="Hero: Bolt; Total_gross: 114053759" role="graphics-symbol" aria-roledescription="bar" d="M256.70731707317077,223.96416066666666h10.975609756097562v76.03583933333334h-10.975609756097562Z" fill="pink"/><path aria-label="Hero: Ariel; Total_gross: 111543479" role="graphics-symbol" aria-roledescription="bar" d="M244.51219512195124,225.63768066666668h10.975609756097562v74.36231933333332h-10.975609756097562Z" fill="pink"/><path aria-label="Hero: Tiana; Total_gross: 104400899" role="graphics-symbol" aria-roledescription="bar" d="M232.31707317073173,230.39940066666668h10.975609756097562v69.60059933333332h-10.975609756097562Z" fill="pink"/><path aria-label="Hero: Quasimodo; Total_gross: 100138851" role="graphics-symbol" aria-roledescription="bar" d="M220.1219512195122,233.24076599999998h10.975609756097562v66.75923400000002h-10.975609756097562Z" fill="pink"/><path aria-label="Hero: Hercules; Total_gross: 99112101" role="graphics-symbol" aria-roledescription="bar" d="M207.9268292682927,233.92526600000002h10.975609756097562v66.07473399999998h-10.975609756097562Z" fill="pink"/><path aria-label="Hero: Lewis; Total_gross: 97822171" role="graphics-symbol" aria-roledescription="bar" d="M195.7317073170732,234.78521933333332h10.975609756097562v65.21478066666668h-10.975609756097562Z" fill="pink"/><path aria-label="Hero: Lady and Tramp; Total_gross: 93600000" role="graphics-symbol" aria-roledescription="bar" d="M183.53658536585368,237.60000000000002h10.975609756097562v62.39999999999998h-10.975609756097562Z" fill="pink"/><path aria-label="Hero: Kuzco; Total_gross: 89296573" role="graphics-symbol" aria-roledescription="bar" d="M171.34146341463418,240.46895133333334h10.975609756097562v59.53104866666666h-10.975609756097562Z" fill="pink"/><path aria-label="Hero: Kenai; Total_gross: 85336277" role="graphics-symbol" aria-roledescription="bar" d="M159.14634146341464,243.10914866666667h10.975609756097562v56.89085133333333h-10.975609756097562Z" fill="pink"/><path aria-label="Hero: Pinocchio; Total_gross: 84300000" role="graphics-symbol" aria-roledescription="bar" d="M146.95121951219514,243.79999999999998h10.975609756097562v56.20000000000002h-10.975609756097562Z" fill="pink"/><path aria-label="Hero: Milo Thatch; Total_gross: 84052762" role="graphics-symbol" aria-roledescription="bar" d="M134.75609756097563,243.96482533333335h10.975609756097562v56.03517466666665h-10.975609756097562Z" fill="pink"/><path aria-label="Hero: Thomas and Duchess; Total_gross: 55675257" role="graphics-symbol" aria-roledescription="bar" d="M122.56097560975611,262.88316199999997h10.975609756097562v37.11683800000003h-10.975609756097562Z" fill="pink"/><path aria-label="Hero: Maggie; Total_gross: 50026353" role="graphics-symbol" aria-roledescription="bar" d="M110.3658536585366,266.649098h10.975609756097562v33.35090200000002h-10.975609756097562Z" fill="pink"/><path aria-label="Hero: Oliver; Total_gross: 49576671" role="graphics-symbol" aria-roledescription="bar" d="M98.17073170731709,266.948886h10.975609756097562v33.051113999999984h-10.975609756097562Z" fill="pink"/><path aria-label="Hero: Tod and Copper; Total_gross: 43899231" role="graphics-symbol" aria-roledescription="bar" d="M85.97560975609758,270.733846h10.975609756097562v29.266153999999972h-10.975609756097562Z" fill="pink"/><path aria-label="Hero: Bernard and Miss Bianca; Total_gross: 38353530" role="graphics-symbol" aria-roledescription="bar" d="M73.78048780487806,274.43098h10.975609756097562v25.569020000000023h-10.975609756097562Z" fill="pink"/><path aria-label="Hero: Jim Hawkins; Total_gross: 38120554" role="graphics-symbol" aria-roledescription="bar" d="M61.58536585365855,274.58629733333333h10.975609756097562v25.413702666666666h-10.975609756097562Z" fill="pink"/><path aria-label="Hero: Basil; Total_gross: 23605534" role="graphics-symbol" aria-roledescription="bar" d="M49.39024390243904,284.26297733333337h10.975609756097562v15.737022666666633h-10.975609756097562Z" fill="pink"/><path aria-label="Hero: Arthur; Total_gross: 22182353" role="graphics-symbol" aria-roledescription="bar" d="M37.19512195121953,285.2117646666667h10.975609756097562v14.788235333333319h-10.975609756097562Z" fill="pink"/><path aria-label="Hero: Taran; Total_gross: 21288692" role="graphics-symbol" aria-roledescription="bar" d="M25.000000000000014,285.8075386666667h10.975609756097562v14.192461333333313h-10.975609756097562Z" fill="pink"/><path aria-label="Hero: Winnie the Pooh; Total_gross: 13346423" role="graphics-symbol" aria-roledescription="bar" d="M12.804878048780502,291.1023846666667h10.975609756097562v8.897615333333306h-10.975609756097562Z" fill="pink"/><path aria-label="Hero: Aurora; Total_gross: 9464608" role="graphics-symbol" aria-roledescription="bar" d="M0.6097560975609895,293.69026133333335h10.975609756097562v6.309738666666647h-10.975609756097562Z" fill="pink"/></g><g class="mark-group role-title"><g transform="translate(250,-22)"><path class="background" aria-hidden="true" d="M0,0h0v0h0Z" pointer-events="none"/><g><g class="mark-text role-title-text" role="graphics-symbol" aria-roledescription="title" aria-label="Title text 'Hero vs. Total_gross'" pointer-events="none"><text text-anchor="middle" transform="translate(0,10)" font-family="sans-serif" font-size="13px" font-weight="bold" fill="#000" opacity="1">Hero vs. Total_gross</text></g></g><path class="foreground" aria-hidden="true" d="" pointer-events="none" display="none"/></g></g></g><path class="foreground" aria-hidden="true" d="" display="none"/></g></g></g></svg>